<?xml version="1.0" encoding="UTF-8" standalone="no"?>
<!DOCTYPE svg PUBLIC "-//W3C//DTD SVG 1.1//EN" "http://www.w3.org/Graphics/SVG/1.1/DTD/svg11.dtd">
<svg width="100%" height="100%" viewBox="0 0 150 170" version="1.1" xmlns="http://www.w3.org/2000/svg" xmlns:xlink="http://www.w3.org/1999/xlink" xml:space="preserve" xmlns:serif="http://www.serif.com/" style="fill-rule:evenodd;clip-rule:evenodd;stroke-linecap:round;stroke-linejoin:round;stroke-miterlimit:1.5;">
    <path d="M30.062,144.483C11.813,130.83 -0.004,109.051 -0.004,84.534C-0.004,43.239 33.522,9.712 74.818,9.712C116.113,9.712 149.639,43.239 149.639,84.534C149.639,108.961 137.909,130.669 119.775,144.325L119.966,141.048C119.966,119.416 99.779,101.854 74.914,101.854C50.049,101.854 29.862,119.416 29.862,141.048L30.062,144.483Z" style="fill:rgb(88,88,88);"/>
    <g transform="matrix(1.18064,0,0,1.02713,-21.3006,44.5991)">
        <path d="M43.504,97.245L43.335,93.901C43.335,72.841 60.433,55.742 81.494,55.742C102.554,55.742 119.652,72.841 119.652,93.901L119.491,97.091C108.89,106.279 95.7,111.726 81.412,111.726C67.201,111.726 54.076,106.337 43.504,97.245Z" style="fill:white;stroke:white;stroke-width:2.41px;"/>
    </g>
    <g transform="matrix(0.637618,0,0,0.390422,22.9521,70.7519)">
        <circle cx="81.494" cy="93.901" r="38.159" style="fill:rgb(88,88,88);stroke:white;stroke-width:5.04px;"/>
    </g>
    <path d="M43.095,37.28C42.937,37.28 37.731,48.954 38.993,49.585C40.255,50.216 36.785,55.737 40.728,60.943C44.672,66.149 45.461,61.258 45.461,61.258L58.554,54.79L61.078,49.585L58.239,45.168L51.771,41.066C51.771,41.066 43.252,37.28 43.095,37.28Z" style="fill:rgb(253,212,255);"/>
    <g transform="matrix(-1,0,0,1,148.855,2.84217e-14)">
        <path d="M43.095,37.28C35.207,35.072 35.207,50.216 36.469,50.847C37.731,51.478 36.547,55.926 40.728,60.943C42.306,62.836 44.357,61.101 44.357,61.101L54.926,52.266L61.078,49.585L58.239,45.168L51.771,41.066C51.771,41.066 43.247,37.323 43.095,37.28Z" style="fill:rgb(253,212,255);"/>
    </g>
    <g transform="matrix(1,0,0,0.869981,-6.56652,-1.07001)">
        <circle cx="81.494" cy="93.901" r="38.159" style="fill:white;stroke:white;stroke-width:2.85px;"/>
    </g>
    <g>
        <g>
            <g transform="matrix(0.997877,-0.0651323,0.0651323,0.997877,-6.12057,14.0443)">
                <path d="M47.67,26.395C47.67,26.395 36.627,40.593 44.988,53.686" style="fill:none;stroke:white;stroke-width:2.67px;"/>
            </g>
            <g transform="matrix(-0.723139,0.690703,0.690703,0.723139,59.2479,-14.5632)">
                <path d="M47.67,26.395C47.67,26.395 36.627,40.593 44.988,53.686" style="fill:none;stroke:white;stroke-width:2.67px;"/>
            </g>
        </g>
        <g>
            <g transform="matrix(0.562978,0.826472,-0.826472,0.562978,105.806,-16.9617)">
                <path d="M47.67,26.395C47.67,26.395 36.627,40.593 44.988,53.686" style="fill:none;stroke:white;stroke-width:2.67px;"/>
            </g>
            <g transform="matrix(-0.962281,-0.272056,-0.272056,0.962281,163.652,24.8144)">
                <path d="M47.67,26.395C47.67,26.395 36.627,40.593 44.988,53.686" style="fill:none;stroke:white;stroke-width:2.67px;"/>
            </g>
        </g>
    </g>
    <g>
        <g transform="matrix(1,0,0,1,2.36627,2.83953)">
            <g transform="matrix(0.522575,-0.301709,0.5,0.866025,-14.8488,42.2121)">
                <path d="M40.097,69.698C40.097,69.219 39.453,68.83 38.66,68.83L20.081,68.83C19.288,68.83 18.643,69.219 18.643,69.698L18.643,71.433C18.643,71.912 19.288,72.301 20.081,72.301L38.66,72.301C39.453,72.301 40.097,71.912 40.097,71.433L40.097,69.698Z" style="fill:white;"/>
            </g>
            <g transform="matrix(0.407407,-0.42668,0.675167,0.707107,-17.4701,62.2491)">
                <path d="M40.097,69.698C40.097,69.219 39.454,68.83 38.661,68.83L20.08,68.83C19.287,68.83 18.643,69.219 18.643,69.698L18.643,71.433C18.643,71.912 19.287,72.301 20.08,72.301L38.661,72.301C39.454,72.301 40.097,71.912 40.097,71.433L40.097,69.698Z" style="fill:white;"/>
            </g>
            <g transform="matrix(0.599839,-0.0656192,0.108746,0.99407,8.96698,19.1437)">
                <path d="M40.097,69.698C40.097,69.219 39.453,68.83 38.66,68.83L20.081,68.83C19.288,68.83 18.643,69.219 18.643,69.698L18.643,71.433C18.643,71.912 19.288,72.301 20.081,72.301L38.66,72.301C39.453,72.301 40.097,71.912 40.097,71.433L40.097,69.698Z" style="fill:white;"/>
            </g>
        </g>
        <g transform="matrix(-1,0,0,1,145.734,2.83953)">
            <g transform="matrix(0.522575,-0.301709,0.5,0.866025,-14.8488,42.2121)">
                <path d="M40.097,69.698C40.097,69.219 39.453,68.83 38.66,68.83L20.081,68.83C19.288,68.83 18.643,69.219 18.643,69.698L18.643,71.433C18.643,71.912 19.288,72.301 20.081,72.301L38.66,72.301C39.453,72.301 40.097,71.912 40.097,71.433L40.097,69.698Z" style="fill:white;"/>
            </g>
            <g transform="matrix(0.407407,-0.42668,0.675167,0.707107,-18.5055,62.2491)">
                <path d="M40.097,69.698C40.097,69.219 39.454,68.83 38.661,68.83L20.08,68.83C19.287,68.83 18.643,69.219 18.643,69.698L18.643,71.433C18.643,71.912 19.287,72.301 20.08,72.301L38.661,72.301C39.454,72.301 40.097,71.912 40.097,71.433L40.097,69.698Z" style="fill:white;"/>
            </g>
            <g transform="matrix(0.599839,-0.0656192,0.108746,0.99407,7.96698,19.1437)">
                <path d="M40.097,69.698C40.097,69.219 39.453,68.83 38.66,68.83L20.081,68.83C19.288,68.83 18.643,69.219 18.643,69.698L18.643,71.433C18.643,71.912 19.288,72.301 20.081,72.301L38.66,72.301C39.453,72.301 40.097,71.912 40.097,71.433L40.097,69.698Z" style="fill:white;"/>
            </g>
        </g>
    </g>
    <g transform="matrix(0.668701,0,0,0.668701,49.4132,46.76)">
        <ellipse cx="27.162" cy="64.808" rx="11.043" ry="9.859" style="fill:none;stroke:rgb(88,88,88);stroke-width:1.99px;"/>
    </g>
    <g transform="matrix(0.668701,0,0,0.668701,64.4132,46.76)">
        <ellipse cx="27.162" cy="64.808" rx="11.043" ry="9.859" style="fill:none;stroke:rgb(88,88,88);stroke-width:1.99px;"/>
    </g>
    <g id="Layer1">
        <g transform="matrix(1,0,0,1,3,6)">
            <ellipse cx="72.515" cy="77.901" rx="7.966" ry="4.18" style="fill:rgb(88,88,88);stroke:rgb(88,88,88);stroke-width:1.33px;"/>
        </g>
        <g transform="matrix(1,0,0,0.735849,3,28.4707)">
            <ellipse cx="72.515" cy="77.901" rx="7.966" ry="4.18" style="fill:rgb(253,212,255);"/>
        </g>
        <g transform="matrix(1.66154,0,0,1.12281,-35.4887,-23.049)">
            <ellipse cx="61.157" cy="98.409" rx="5.127" ry="4.496" style="fill:white;"/>
        </g>
        <g transform="matrix(1.52308,0,0,1.12281,-9.47137,-23.049)">
            <ellipse cx="61.157" cy="98.409" rx="5.127" ry="4.496" style="fill:white;"/>
        </g>
        <g transform="matrix(0.621212,0,0,1,23.6577,1)">
            <path d="M49.405,93.913C49.405,93.913 52.56,89.654 59.816,90.285" style="fill:none;stroke:rgb(88,88,88);stroke-width:1.6px;"/>
        </g>
        <g transform="matrix(-0.621212,0,0,1,126.507,0)">
            <path d="M49.405,93.913C49.405,93.913 52.56,89.654 59.816,90.285" style="fill:none;stroke:rgb(88,88,88);stroke-width:1.6px;"/>
        </g>
    </g>
</svg>
